<?xml version="1.0" encoding="UTF-8"?>
<svg id="dxe-0" xmlns="http://www.w3.org/2000/svg" viewBox="0 0 412.99 138.67">
  <g id="textblocktransform">
    <g id="text-0">
      <path d="m206.85,66.47c0,4.87-1,9.2-2.93,13-1.93,3.73-4.6,6.73-7.93,8.93h0l5.93,9.6h-7.2l-4.27-6.87c-2.47.8-5,1.13-7.53,1.13h0c-4.33,0-8.33-1.07-12-3.2-3.67-2.13-6.6-5.13-8.73-9s-3.33-8.47-3.33-13.6h0c0-5.2,1.07-9.73,3.27-13.67,2.13-3.87,5.07-6.87,8.73-8.93,3.67-2.07,7.67-3.13,12-3.13h0c4.33,0,8.33,1.07,12,3.13,3.67,2.07,6.6,5.07,8.73,8.93,2.2,3.87,3.27,8.47,3.27,13.67h0Zm-40.27.07c0,3.93.73,7.33,2.2,10.13,1.47,2.87,3.47,5,5.93,6.47,2.47,1.47,5.2,2.2,8.07,2.2h0c1.33,0,2.6-.13,3.8-.4h0l-4.33-7.4h7.27l2.8,4.73c2.13-1.6,3.8-3.73,5-6.4s1.8-5.8,1.8-9.4h0c0-4-.73-7.4-2.2-10.27-1.47-2.8-3.4-5-5.87-6.4-2.4-1.4-5.13-2.13-8.2-2.13h0c-3.07,0-5.8.73-8.27,2.2-2.47,1.47-4.4,3.6-5.87,6.4-1.4,2.87-2.13,6.27-2.13,10.27h0Zm58.33,25.67c-4.13,0-6.93-1.27-8.47-3.8-1.53-2.53-2.33-6.07-2.33-10.6h0v-17.47h7v15.67c0,2.6.13,4.6.4,6s.87,2.47,1.67,3.2c.87.67,2.13,1,3.8,1h0c1.2,0,2.4-.33,3.53-1.07,1.13-.73,2.07-1.73,2.73-2.93.73-1.27,1.07-2.6,1.07-4.13h0v-17.73h6.93v31.2h-5.73l-.67-4.53c-1.07,1.8-2.47,3.07-4.07,3.93-1.6.87-3.6,1.27-5.87,1.27h0Zm26.33-.67v-31.2h7.27v31.2h-7.27Zm3.6-37.07c-1.33,0-2.47-.47-3.4-1.4-.93-.93-1.4-2.13-1.4-3.53h0c0-1.27.47-2.33,1.4-3.27.93-.93,2.07-1.33,3.4-1.33h0c1.33,0,2.4.47,3.33,1.33.93.93,1.4,2,1.4,3.27h0c0,1.4-.47,2.6-1.33,3.53-.93.93-2.07,1.4-3.4,1.4h0Zm27.33,37.73c-2.93,0-5.6-.67-7.93-2-2.4-1.33-4.27-3.27-5.67-5.8-1.4-2.53-2.07-5.47-2.07-8.87h0c0-3.2.67-6.07,1.93-8.47s3.07-4.27,5.4-5.6c2.33-1.33,5-2,8-2h0c2.27,0,4.27.33,5.93.93s3,1.4,3.93,2.27h0l-3.13,5.93c-1.8-1.93-3.87-2.87-6.2-2.87h0c-2.8,0-4.87.87-6.33,2.67s-2.2,4.13-2.2,7.07h0c0,3.33.73,5.93,2.27,7.8,1.47,1.87,3.6,2.8,6.27,2.8h0c1.33,0,2.67-.2,3.93-.6s2.27-.87,2.93-1.4h0l2.53,5.2c-.93.8-2.27,1.47-4,2.07-1.6.6-3.47.87-5.6.87h0Zm32.13-18.8l11.33,18.13h-8.27l-6.07-10.2-1.67-3.47-3.93,4.4v9.27h-6.8v-50h6.73v27.4l-.13,5.33,11.4-13.93h8.67l-11.27,13.07Zm39.07,18.6c-4.93,0-9.2-1.13-12.87-3.47-3.6-2.33-6.4-5.4-8.27-9.27-1.93-3.87-2.87-8.13-2.87-12.8h0c0-4.93,1-9.33,3.07-13.27,2.07-3.87,4.93-6.93,8.67-9.13,3.73-2.2,7.93-3.27,12.67-3.27h0c2.13,0,4.13.27,5.93.73,1.87.47,3.4,1,4.6,1.6s2,1.13,2.4,1.53h0l-3.2,6.8c-2.67-2.47-6.07-3.67-10.33-3.67h0c-3,0-5.73.8-8.13,2.33-2.4,1.53-4.33,3.73-5.73,6.6-1.4,2.87-2.07,6.13-2.07,9.93h0c0,3.47.6,6.6,1.87,9.4,1.27,2.8,3.07,5,5.47,6.67s5.2,2.47,8.53,2.47h0c3.8,0,7.53-1.13,11.07-3.4h0l2.13,6.47c-.93.93-2.73,1.8-5.27,2.6-2.47.73-5,1.13-7.67,1.13h0Zm36.53-.47l-22.13-50h8.27l14.33,34.33,14.4-34.33h8.2l-22.07,50h-1Z" fill="#fff" stroke-width="0"/>
    </g>
  </g>
  <g id="icon-0">
    <path d="m0,69.33C0,31.07,29.67,0,66.33,0s66.33,31,66.33,69.33-29.73,69.33-66.33,69.33S0,107.6,0,69.33Zm66.33,64.13c33.93,0,61.4-28.73,61.4-64.13S100.2,5.2,66.33,5.2,4.93,33.93,4.93,69.33s27.47,64.13,61.4,64.13Z" fill="#fff" stroke-width="0"/>
    <g>
      <path d="m77.57,29.81h-40.93v79.07h59.33v-59.87l-18.4-19.2Zm.73,4.47l13.33,13.93h-13.33s0-13.93,0-13.93Zm-39.13,72V32.41h36.6v18.47h17.67v55.33h-54.27v.07Z" fill="#fff" stroke-width="0"/>
      <path d="m71.97,78.55c.67,0,1.27-.6,1.27-1.33s-.53-1.33-1.27-1.33h-21.4c-.67,0-1.27.6-1.27,1.33s.53,1.33,1.27,1.33h21.4Z" fill="#fff" stroke-width="0"/>
      <path d="m84.64,69.35h-8.87c-.67,0-1.27.6-1.27,1.33s.53,1.33,1.27,1.33h8.8c.67,0,1.27-.6,1.27-1.33s-.53-1.33-1.2-1.33" fill="#fff" stroke-width="0"/>
      <path d="m55.57,70.68c0,.73.53,1.33,1.27,1.33h12.6c.67,0,1.27-.6,1.27-1.33s-.53-1.33-1.27-1.33h-12.6c-.67,0-1.27.6-1.27,1.33" fill="#fff" stroke-width="0"/>
      <path d="m49.64,69.75c-.2.27-.33.6-.33.93,0,.73.6,1.33,1.27,1.33.33,0,.67-.13.87-.4.2-.27.33-.6.33-.93s-.13-.67-.33-.93c-.47-.53-1.33-.53-1.8,0" fill="#fff" stroke-width="0"/>
      <path d="m77.44,76.28c-.2.27-.33.6-.33.93s.13.67.33.93c.27.27.6.4.87.4.33,0,.67-.13.87-.4.27-.27.4-.6.33-.93,0-.33-.13-.67-.33-.93-.47-.47-1.27-.47-1.73,0" fill="#fff" stroke-width="0"/>
      <path d="m83.7,76.28c-.2.27-.33.6-.33.93s.13.67.33.93c.27.27.6.4.87.4.33,0,.67-.13.87-.4.27-.27.33-.6.33-.93s-.13-.67-.33-.93c-.4-.47-1.27-.47-1.73,0" fill="#fff" stroke-width="0"/>
      <path d="m57.5,82.75c-2.73,1.53-3.67,4.4-4,7.33l-1.6-1.4c-1.27-1.07-3,.8-1.8,1.87l3.53,3.07c.8.73,2.13.27,2.13-.93.07-2.87.2-6.27,2.93-7.73,1.53-.73.27-3-1.2-2.2" fill="#fff" stroke-width="0"/>
      <path d="m74.44,87.95c-1.87-.13-4.53,2.87-5.93.2-.33-.6-1.13-.87-1.73-.47-1.8,1.13-4.13,2.8-6,.67-1.13-1.27-2.87.6-1.8,1.87,2.33,2.67,5.4,1.87,8.07.33.6.73,1.33,1.2,2.33,1.4,1,.2,5.07-1.53,5.27-1.2.93,1.33,3.13.07,2.2-1.33-.6-.93-1.2-1.4-2.4-1.47" fill="#fff" stroke-width="0"/>
      <path d="m64.64,61.35l.87-.6-.47-1c-.4-.87-1-1.6-1.8-2l-2.67-1.4c1.2-.8,2.13-2.07,2.67-3.67.87-.53,1.4-1.53,1.4-2.6v-.87c0-.87-.4-1.73-1-2.33-.47-2.53-2.07-5.2-7-5.2h-.6c-.67.07-1.6,0-2.47-.6-.4-.27-.6-.47-.67-.6-.4-.53-1.07-.73-1.67-.47s-.93.87-.87,1.53c.07.33.07.73.2,1.13.13.53.13.73.13.73,0,.07-.07.2-.13.33-.07.2-.2.47-.33.8-.27.73-.47,1.47-.6,2.27-.6.6-1,1.4-1,2.27v.87c0,1.07.53,2.07,1.4,2.6.53,1.6,1.4,2.87,2.6,3.67l-2.8,1.4c-.8.47-1.4,1.2-1.73,2l-.4,1,.8.6c2.33,1.73,5.2,2.73,8.07,2.73,2.93.13,5.73-.8,8.07-2.6m-13.47-1.33l3.07-1.6c.67-.33,1.07-1,1.07-1.8v-1.87l-.73-.33c-1.13-.53-1.93-1.53-2.27-3.07l-.2-.73-.67-.2c-.2-.07-.27-.2-.33-.4v-.87c0-.2.13-.33.2-.4l.6-.33.07-.67c.07-.73.27-1.47.47-2.13.13-.27.2-.47.27-.67.2-.47.33-.73.33-1.13.93.4,2,.53,3.07.47h.4c3.67,0,4.4,1.73,4.6,3.47l.07.67.6.33c.13.07.2.2.27.4v.87c0,.2-.13.33-.33.4l-.67.2-.2.73c-.4,1.53-1.13,2.53-2.27,3.07l-.73.33v1.87c0,.73.4,1.4,1.07,1.8l3.07,1.6c-3.33,1.87-7.47,1.87-10.8,0" fill="#fff" stroke-width="0"/>
    </g>
  </g>
</svg>