<?xml version="1.0" encoding="UTF-8"?>
<svg id="dxe-0" xmlns="http://www.w3.org/2000/svg" viewBox="0 0 412.99 138.62">
  <g id="tight-bounds">
    <g>
      <g id="textblocktransform">
        <g id="text-0">
          <path d="m206.89,66.42c0,4.9-.98,9.22-2.93,12.99-1.95,3.76-4.6,6.73-7.94,8.91h0l5.92,9.59h-7.22l-4.3-6.87c-2.47.77-4.99,1.16-7.55,1.16h0c-4.34,0-8.34-1.06-12-3.17-3.67-2.1-6.59-5.1-8.76-9-2.17-3.9-3.25-8.43-3.25-13.6h0c0-5.21,1.08-9.76,3.25-13.64,2.17-3.87,5.09-6.85,8.76-8.93,3.66-2.09,7.66-3.13,12-3.13h0c4.34,0,8.34,1.04,12.01,3.13,3.66,2.09,6.58,5.06,8.75,8.93,2.17,3.88,3.25,8.43,3.25,13.64h0Zm-40.29.07c0,3.94.74,7.33,2.21,10.16,1.48,2.84,3.46,4.99,5.96,6.46,2.49,1.48,5.19,2.22,8.1,2.22h0c1.35,0,2.6-.14,3.77-.41h0l-4.36-7.41h7.29l2.8,4.76c2.13-1.59,3.79-3.72,4.99-6.39,1.19-2.67,1.78-5.8,1.78-9.38h0c0-3.99-.72-7.4-2.17-10.24-1.46-2.83-3.41-4.97-5.86-6.42-2.46-1.45-5.2-2.18-8.24-2.18h0c-3.04,0-5.79.73-8.27,2.18-2.47,1.45-4.43,3.59-5.86,6.42-1.43,2.84-2.15,6.25-2.15,10.24h0Zm58.31,25.7c-4.12,0-6.96-1.27-8.5-3.81-1.54-2.54-2.3-6.07-2.3-10.61h0v-17.47h7.03v15.64c0,2.58.14,4.59.42,6.01.29,1.43.85,2.49,1.69,3.17.85.68,2.12,1.02,3.81,1.02h0c1.21,0,2.39-.36,3.51-1.09,1.13-.73,2.05-1.71,2.76-2.96.72-1.24,1.08-2.61,1.08-4.11h0v-17.68h6.96v31.21h-5.73l-.78-4.56c-1.08,1.77-2.44,3.08-4.07,3.94-1.62.86-3.58,1.29-5.88,1.29h0Zm26.36-.68v-31.21h7.29v31.21h-7.29Zm3.58-37.06c-1.35,0-2.47-.48-3.38-1.43-.91-.95-1.37-2.13-1.37-3.54h0c0-1.27.46-2.36,1.37-3.26.91-.91,2.04-1.36,3.38-1.36h0c1.3,0,2.41.45,3.32,1.36.91.91,1.37,1.99,1.37,3.26h0c0,1.41-.45,2.58-1.34,3.54-.89.95-2,1.43-3.35,1.43h0Zm27.39,37.74c-2.95,0-5.61-.67-7.97-2.01-2.37-1.33-4.25-3.26-5.64-5.78-1.39-2.51-2.08-5.47-2.08-8.87h0c0-3.22.64-6.04,1.93-8.47,1.28-2.42,3.08-4.29,5.4-5.6,2.32-1.31,4.99-1.97,8.03-1.97h0c2.3,0,4.29.3,5.96.91,1.67.62,2.98,1.38,3.93,2.28h0l-3.12,5.92c-1.82-1.9-3.88-2.86-6.18-2.86h0c-2.78,0-4.89.88-6.34,2.65-1.46,1.77-2.19,4.12-2.19,7.07h0c0,3.35.75,5.96,2.25,7.82,1.49,1.86,3.58,2.79,6.27,2.79h0c1.35,0,2.66-.2,3.94-.61,1.28-.41,2.26-.88,2.95-1.43h0l2.54,5.17c-.95.77-2.29,1.46-4,2.07-1.72.62-3.62.92-5.7.92h0Zm32.09-18.83l11.32,18.15h-8.27l-6.05-10.2-1.69-3.47-3.9,4.42v9.25h-6.77v-49.98h6.7v27.4l-.13,5.3,11.39-13.94h8.66l-11.26,13.05Zm39.11,18.63c-4.95,0-9.23-1.16-12.86-3.47-3.62-2.31-6.38-5.41-8.29-9.29-1.91-3.87-2.86-8.14-2.86-12.81h0c0-4.94,1.03-9.36,3.08-13.26,2.07-3.9,4.96-6.95,8.7-9.15,3.73-2.19,7.96-3.29,12.69-3.29h0c2.13,0,4.11.24,5.95.71,1.85.48,3.38,1.02,4.59,1.63,1.21.62,2.02,1.13,2.41,1.54h0l-3.19,6.8c-2.65-2.45-6.1-3.67-10.35-3.67h0c-2.99,0-5.71.77-8.14,2.31s-4.34,3.74-5.73,6.6c-1.39,2.86-2.08,6.16-2.08,9.93h0c0,3.45.62,6.57,1.85,9.38,1.24,2.81,3.05,5.03,5.44,6.66,2.39,1.63,5.23,2.45,8.53,2.45h0c3.82,0,7.51-1.13,11.06-3.4h0l2.15,6.46c-.95.91-2.7,1.78-5.25,2.61-2.53.84-5.1,1.26-7.71,1.26h0Zm36.5-.48l-22.13-49.98h8.28l14.32,34.34,14.37-34.34h8.21l-22.08,49.98h-.98Z" fill="#31c48d" stroke-width="0"/>
        </g>
      </g>
      <g id="icon-0">
        <path d="m0,69.31C0,31.03,29.7,0,66.34,0s66.34,31.03,66.34,69.31-29.7,69.31-66.34,69.31S0,107.59,0,69.31Zm66.34,64.15c33.91,0,61.41-28.72,61.41-64.15S100.25,5.16,66.34,5.16,4.94,33.88,4.94,69.31s27.49,64.15,61.41,64.15Z" fill="#31c48d" stroke-width="0"/>
        <g>
          <path d="m77.59,29.76h-40.9v79.09h59.3v-59.87l-18.4-19.23Zm.74,4.5l13.36,13.95h-13.36v-13.95Zm-39.11,71.96V32.4h36.59v18.45h17.66v55.36h-54.26Z" fill="#31c48d" stroke-width="0"/>
          <path d="m72.02,78.54c.7,0,1.26-.59,1.26-1.32s-.56-1.32-1.26-1.32h-21.45c-.7,0-1.26.59-1.26,1.32s.56,1.32,1.26,1.32h21.45Z" fill="#31c48d" stroke-width="0"/>
          <path d="m84.64,69.31h-8.83c-.7,0-1.26.59-1.26,1.32s.56,1.32,1.26,1.32h8.83c.7,0,1.26-.59,1.26-1.32s-.56-1.32-1.26-1.32" fill="#31c48d" stroke-width="0"/>
          <path d="m55.62,70.63c0,.73.56,1.32,1.26,1.32h12.62c.7,0,1.26-.59,1.26-1.32s-.56-1.32-1.26-1.32h-12.62c-.7,0-1.26.59-1.26,1.32" fill="#31c48d" stroke-width="0"/>
          <path d="m49.67,69.69c-.23.25-.37.59-.37.94,0,.73.57,1.31,1.26,1.32.34,0,.66-.15.9-.38.23-.25.37-.59.37-.94s-.14-.69-.37-.94c-.47-.49-1.34-.47-1.79,0" fill="#31c48d" stroke-width="0"/>
          <path d="m77.43,76.28c-.23.25-.37.58-.37.94s.13.69.37.94c.24.24.57.38.9.38s.66-.15.9-.38c.24-.25.37-.59.37-.94,0-.34-.14-.69-.37-.94-.48-.49-1.31-.49-1.79,0" fill="#31c48d" stroke-width="0"/>
          <path d="m83.74,76.28c-.23.25-.37.58-.37.94s.13.69.37.94c.24.24.57.38.9.38s.66-.15.9-.4.37-.58.37-.92-.14-.69-.37-.94c-.48-.49-1.31-.49-1.79,0" fill="#31c48d" stroke-width="0"/>
          <path d="m57.54,82.71c-2.76,1.5-3.69,4.38-4.03,7.36l-1.57-1.37c-1.24-1.08-3.03.77-1.78,1.87l3.54,3.1c.83.73,2.11.27,2.15-.93.09-2.86.22-6.25,2.96-7.74,1.44-.78.17-3.06-1.27-2.28" fill="#31c48d" stroke-width="0"/>
          <path d="m74.49,87.91c-1.84-.12-4.53,2.84-5.95.2-.33-.61-1.15-.84-1.73-.47-1.79,1.15-4.12,2.79-6,.66-1.1-1.25-2.88.62-1.78,1.86,2.36,2.68,5.4,1.87,8.07.35.6.71,1.35,1.22,2.32,1.42,1,.21,5.08-1.5,5.3-1.19.95,1.36,3.14.04,2.18-1.33-.65-.93-1.25-1.43-2.41-1.51" fill="#31c48d" stroke-width="0"/>
          <path d="m64.66,61.35l.85-.63-.43-.99c-.37-.87-1.02-1.59-1.83-2.02l-2.67-1.43c1.23-.82,2.11-2.06,2.64-3.69.87-.56,1.41-1.55,1.41-2.62v-.88c0-.89-.37-1.72-1-2.3-.45-2.5-2.07-5.21-6.99-5.21-.19,0-.38,0-.57.02-.66.06-1.62,0-2.44-.58-.38-.27-.58-.48-.67-.61-.39-.53-1.08-.72-1.67-.46-.59.25-.95.89-.88,1.55.04.34.09.73.17,1.17.11.55.11.71.11.76-.01.05-.08.21-.14.34-.09.2-.2.44-.32.77-.28.73-.48,1.49-.59,2.27-.62.58-.98,1.41-.98,2.28v.88c0,1.09.54,2.07,1.41,2.62.53,1.63,1.41,2.86,2.63,3.68l-2.78,1.43c-.78.45-1.4,1.17-1.74,2.03l-.4.98.83.62c2.35,1.76,5.17,2.71,8.06,2.7,2.89,0,5.67-.93,8.03-2.69m-13.44-1.39l3.09-1.59c.65-.34,1.06-1.02,1.06-1.79v-1.87l-.76-.34c-1.15-.52-1.9-1.52-2.3-3.06l-.18-.7-.66-.22c-.17-.06-.3-.22-.3-.41v-.88c0-.19.12-.32.23-.38l.59-.33.07-.7c.07-.73.23-1.45.49-2.14.11-.28.2-.49.28-.66.2-.44.31-.76.36-1.13.92.4,1.97.56,3.08.47.12-.01.24-.02.37-.02,3.68,0,4.38,1.76,4.57,3.48l.08.69.59.32c.14.07.23.22.23.38v.88c0,.19-.13.36-.3.41l-.66.22-.18.7c-.39,1.54-1.15,2.54-2.3,3.06l-.76.34v1.88c0,.75.4,1.43,1.04,1.78l3.05,1.63c-3.31,1.86-7.46,1.85-10.76-.04" fill="#31c48d" stroke-width="0"/>
        </g>
      </g>
    </g>
  </g>
</svg>