<?xml version="1.0" encoding="UTF-8"?>
<svg id="katman_1" data-name="katman 1" xmlns="http://www.w3.org/2000/svg" viewBox="0 0 97.92 18.77">
 
  <g>
    <rect x="40.45" y=".95" width="17" height="17" rx="8.5" ry="8.5" transform="translate(97.9 18.89) rotate(180)" fill="none" stroke="#1d1d1b" stroke-miterlimit="10" stroke-width=".75"/>
    <line x1="28.91" y1="9.45" x2="40.45" y2="9.45" fill="none" stroke="#1d1d1b" stroke-miterlimit="10" stroke-width=".75"/>
    <line x1="57.45" y1="8.87" x2="68.99" y2="8.87" fill="none" stroke="#1d1d1b" stroke-miterlimit="10" stroke-width=".75"/>
    <path d="m53.37,5.13l-6.08-1.63c-.84-.22-1.7.27-1.93,1.11l-1.94,7.22c-.22.84.27,1.7,1.11,1.93l6.08,1.63c.84.22,1.7-.27,1.93-1.11l1.93-7.22c.22-.84-.27-1.7-1.11-1.93Zm-7.25-.31c.11-.42.54-.67.96-.56l6.08,1.63c.42.11.67.54.56.96l-1.94,7.22c-.11.42-.54.67-.96.56l-6.08-1.63c-.42-.11-.67-.54-.56-.96l1.94-7.22Zm1.32,1.17c-.21-.06-.43.07-.48.28-.06.21.07.43.28.48l4.56,1.22c.21.06.43-.07.48-.28.06-.21-.07-.43-.28-.48l-4.56-1.22Zm-.99,2.18c.06-.21.27-.33.48-.28l4.56,1.22c.21.06.33.27.28.48-.06.21-.27.33-.48.28l-4.56-1.22c-.21-.06-.33-.27-.28-.48Zm-.03,1.62c-.21-.06-.43.07-.48.28-.06.21.07.43.28.48l2.66.71c.21.06.43-.07.48-.28.06-.21-.07-.43-.28-.48l-2.66-.71Z" stroke-width="0"/>
  </g>
 
</svg>