<?xml version="1.0" encoding="UTF-8"?>
<svg id="katman_1" data-name="katman 1" xmlns="http://www.w3.org/2000/svg" viewBox="0 0 515 399">
  <g id="Layer_1">
    <path d="m93.42,242.84V9.97c0-5.51,6.1-9.97,13.62-9.97h302.64c57.96,0,105.32,34.69,105.32,77.14v243.47c0,5.51-6.1,9.98-13.62,9.98H213.23c-6.77,39.06-52.33,68.42-106.19,68.42-59.11,0-107.04-35.1-107.04-78.4,0-39.44,40.1-72.81,93.42-77.77h0Zm-39,93.84c-12.67-9.28,6.6-23.38,19.26-14.1l18.53,13.57,46.43-52.24c9.71-10.95,32.48-.12,22.77,10.83l-55,61.87c-4.29,5.82-15.13,7.06-21.61,2.31l-30.38-22.25h0Zm158.81-26.05h274.53V77.14c0-31.43-35.17-57.19-78.09-57.19H120.66v222.89c48.22,4.48,86.44,32.47,92.57,67.79h0Zm-106.19-48.47c-44.07,0-79.8,26.17-79.8,58.44s35.73,58.45,79.8,58.45,79.81-26.17,79.81-58.45-35.73-58.44-79.81-58.44Zm282.57-122.8h60.76c7.52,0,13.62,4.47,13.62,9.98v104.94c0,5.51-6.1,9.98-13.62,9.98h-60.76c-7.52,0-13.62-4.47-13.62-9.98v-104.94c0-5.51,6.1-9.98,13.62-9.98h0Zm47.13,19.95h-33.52v84.99h33.52v-84.99h0Zm-112.47-78.91c-17.92,0-17.92-19.95,0-19.95h103.17c17.92,0,17.92,19.95,0,19.95h-103.17Zm0,33.58c-17.92,0-17.92-19.95,0-19.95h103.17c17.92,0,17.92,19.95,0,19.95h-103.17Zm-168.51,105.78c-17.92,0-17.92-19.95,0-19.95h188c17.91,0,17.91,19.95,0,19.95h-188,0Zm0-28.54c-17.92,0-17.92-19.95,0-19.95h188c17.91,0,17.91,19.95,0,19.95h-188,0Zm0-28.54c-17.92,0-17.92-19.95,0-19.95h135.26c17.92,0,17.92,19.95,0,19.95h-135.26Zm2.86-122.37h100.88c7.52,0,13.62,4.46,13.62,9.97v73.88c0,5.51-6.1,9.98-13.62,9.98h-100.88c-7.52,0-13.62-4.47-13.62-9.98V50.27c0-5.51,6.1-9.97,13.62-9.97h0Zm87.26,19.95h-73.63v53.93h73.63v-53.93Z" fill="#758694" stroke-width="0"/>
  </g>
</svg>